<?xml version="1.0" encoding="UTF-8"?>
<svg width="89px" height="34px" viewBox="0 0 89 34" version="1.1" xmlns="http://www.w3.org/2000/svg" xmlns:xlink="http://www.w3.org/1999/xlink">
    <title>DNA Design</title>
    <desc>DNA Logo</desc>
    <g fill-rule="nonzero" fill="#000000">
        <path d="M7.214,27.068 L7.214,11.148 L10.148,11.148 C14.716,11.148 17.314,12.953 17.314,19.228 C17.314,25.263 14.669,27.068 9.764,27.068 L7.214,27.068 Z M10.436,33.104 C18.756,33.104 24.816,29.159 24.816,18.799 C24.816,8.959 18.756,5.109 10.966,5.109 L0,5.109 L0,33.103 L10.436,33.103 L10.436,33.104 Z M34.256,5.11 L27.572,5.11 L27.572,33.104 L34.786,33.104 L34.786,23.172 C34.786,19.037 34.498,16.946 34.498,16.946 L34.69,16.946 C34.69,16.946 35.363,18.372 37.19,20.7 L46.81,33.104 L53.255,33.104 L53.255,5.11 L46.04,5.11 L46.04,15.33 C46.04,18.894 46.184,21.08 46.184,21.08 L45.992,21.08 C45.992,21.08 45.415,19.844 43.876,17.8 L34.256,5.11 Z M76.35,33.104 L84.092,33.104 L73.752,5.11 L64.95,5.11 L54.706,33.104 L62.256,33.104 L64.036,27.876 L74.473,27.876 L76.349,33.104 L76.35,33.104 Z M66.825,19.75 C68.412,15.187 69.135,11.622 69.135,11.622 L69.325,11.622 C69.325,11.622 69.903,15.139 71.585,19.796 L72.355,21.936 L66.055,21.936 L66.825,19.75 Z M86.99,3.912 C86.99,3.912 87.53,4.822 87.53,5.744 C87.53,6.981 86.743,7.211 86.126,7.211 C84.116,7.277 83.163,7.147 82.836,7.549 C83.216,6.154 84.123,6.254 85.566,6.254 C86.186,6.254 86.623,5.819 86.596,5.124 C86.336,5.431 84.602,5.13 84.246,5.368 C84.963,4.504 86.976,3.2 86.924,1.588 C86.91,1.198 86.672,0.648 86.264,0.298 C86.264,3.251 78.348,6.125 82.768,11.761 C82.768,11.761 82.225,10.855 82.225,9.933 C82.225,8.697 83.011,8.466 83.628,8.466 C85.638,8.402 86.591,8.529 86.92,8.129 C86.54,9.525 85.632,9.433 84.19,9.433 C83.57,9.433 83.132,9.858 83.158,10.555 C83.418,10.247 85.155,10.548 85.508,10.31 C84.791,11.17 82.78,12.477 82.832,14.088 C82.842,14.481 83.082,15.028 83.489,15.378 C83.489,12.426 91.409,9.548 86.989,3.912 L86.99,3.912 Z">
        </path>
    </g>
</svg>