<svg width="89" height="34" viewBox="0 0 89 34" xmlns="http://www.w3.org/2000/svg"><title>DNA Design</title><desc>DNA Logo</desc><path d="M7.214 27.068v-15.92h2.934c4.568 0 7.166 1.805 7.166 8.08 0 6.035-2.645 7.84-7.55 7.84h-2.55zm3.222 6.036c8.32 0 14.38-3.945 14.38-14.305 0-9.84-6.06-13.69-13.85-13.69H0v27.994h10.436v.001zM34.256 5.11h-6.684v27.994h7.214v-9.932c0-4.135-.288-6.226-.288-6.226h.192s.673 1.426 2.5 3.754l9.62 12.404h6.445V5.11H46.04v10.22c0 3.564.144 5.75.144 5.75h-.192s-.577-1.236-2.116-3.28l-9.62-12.69zM76.35 33.104h7.742L73.752 5.11H64.95L54.706 33.104h7.55l1.78-5.228h10.437l1.876 5.228h.001zM66.825 19.75c1.587-4.563 2.31-8.128 2.31-8.128h.19s.578 3.517 2.26 8.174l.77 2.14h-6.3l.77-2.186zM86.99 3.912s.54.91.54 1.832c0 1.237-.787 1.467-1.404 1.467-2.01.066-2.963-.064-3.29.338.38-1.395 1.287-1.295 2.73-1.295.62 0 1.057-.435 1.03-1.13-.26.307-1.994.006-2.35.244.717-.864 2.73-2.168 2.678-3.78-.014-.39-.252-.94-.66-1.29 0 2.953-7.916 5.827-3.496 11.463 0 0-.543-.906-.543-1.828 0-1.236.786-1.467 1.403-1.467 2.01-.064 2.963.063 3.292-.337-.38 1.396-1.288 1.304-2.73 1.304-.62 0-1.058.425-1.032 1.122.26-.308 1.997-.007 2.35-.245-.717.86-2.728 2.167-2.676 3.778.01.393.25.94.657 1.29 0-2.952 7.92-5.83 3.5-11.466h.001z"/></svg>