<!-- Generated by IcoMoon.io -->
<svg version="1.1" xmlns="http://www.w3.org/2000/svg" width="16" height="16" viewBox="0 0 16 16">
<title>pictures</title>
<path d="M13.302 14.793l-1.312-0.36-0.003-3.629 1.255 0.353 1.809-6.755-9.166-2.456-0.604 2.253h-1.034l0.931-3.476 11.097 2.973-2.973 11.097zM11.52 16h-11.52v-11.489h11.52v11.489zM10.521 5.511h-9.521v6.992h9.521v-6.992zM3.925 10.496l1.141-1.846 1.141 1.15 1.569-2.364 1.642 4.067h-7.278l0.928-1.855 0.857 0.847zM3.242 8.543c-0.414 0-0.75-0.335-0.75-0.749s0.336-0.749 0.75-0.749 0.749 0.335 0.749 0.749-0.335 0.749-0.749 0.749z"></path>
</svg>
